<svg width="512" height="512" xmlns="http://www.w3.org/2000/svg">
 <!-- Font Awesome Pro 5.15.3 by @fontawesome - https://fontawesome.com License - https://fontawesome.com/license (Commercial License) -->

 <g>
  <title>Layer 1</title>
  <path transform="rotate(180, 256, 256)" fill="#25292c" id="svg_1" d="m496,104a24,24 0 0 0 -24,-24l-432,0a24,24 0 0 0 -24,24l0,24l480,0l0,-24zm-16,-80a24,24 0 0 0 -24,-24l-400,0a24,24 0 0 0 -24,24l0,24l448,0l0,-24zm0,136l-448,0a32,32 0 0 0 -31.87,34.9l26.19,288a32,32 0 0 0 31.86,29.1l395.64,0a32,32 0 0 0 31.86,-29.1l26.19,-288a32,32 0 0 0 -31.87,-34.9zm-40.8,304l-366.4,0l-23.28,-256l413,0l-23.32,256zm-183.2,-16c80.13,0 148.25,-45.29 152.34,-104c4.32,-62 -63.78,-114.89 -152.35,-114.89s-156.66,52.94 -152.33,114.89c4.1,58.71 72.21,104 152.34,104zm0,-120.41c14.56,0 26.26,8.69 26.14,19.32s-11.82,19 -26.14,19s-26,-8.47 -26.13,-19s11.58,-19.32 26.13,-19.32z"/>
 </g>
</svg>